<svg width="15" height="13" viewBox="0 0 15 13" fill="none" xmlns="http://www.w3.org/2000/svg">
<path d="M4.71737 12.1908C10.378 12.1908 13.4736 7.50111 13.4736 3.4346C13.4736 3.30135 13.4709 3.1688 13.4647 3.03675C14.0656 2.60239 14.588 2.06021 15 1.44331C14.4486 1.6883 13.8552 1.85327 13.2327 1.92765C13.868 1.54669 14.356 0.94378 14.5861 0.225197C13.9914 0.577835 13.3329 0.834082 12.632 0.972271C12.0702 0.374134 11.2704 0 10.3855 0C8.68578 0 7.30747 1.37831 7.30747 3.07718C7.30747 3.31876 7.3346 3.55351 7.38715 3.77887C4.82962 3.65041 2.56162 2.42565 1.04392 0.563675C0.779318 1.01833 0.626969 1.54686 0.626969 2.11037C0.626969 3.17801 1.17034 4.12059 1.99658 4.67216C1.49176 4.65663 1.01748 4.51776 0.602743 4.2871C0.602061 4.2999 0.602061 4.31286 0.602061 4.32634C0.602061 5.81691 1.66305 7.06129 3.07104 7.3433C2.81257 7.41376 2.54063 7.45163 2.25982 7.45163C2.06158 7.45163 1.86879 7.43184 1.6813 7.39619C2.07301 8.61873 3.20923 9.5086 4.55632 9.53368C3.50284 10.3592 2.17588 10.8511 0.734108 10.8511C0.48588 10.8511 0.240893 10.8369 0 10.8084C1.36193 11.6812 2.97908 12.1908 4.71737 12.1908Z" fill="#3D3D3D"/>
</svg>
